<svg xmlns="http://www.w3.org/2000/svg"
 viewBox="0 0 331 270"
 preserveAspectRatio="xMidYMid meet">
<g transform="translate(0.000000,358.000000) scale(0.100000,-0.100000)"
fill="currentColor" stroke="none">
<path d="M1678 3189 c-2 -4 -19 -9 -38 -12 -36 -6 -44 -8 -94 -22 -90 -25
-271 -166 -291 -227 -4 -10 -10 -18 -15 -18 -5 0 -14 -16 -20 -35 l-12 -36
-123 2 c-68 0 -129 -2 -134 -6 -6 -3 -20 -8 -32 -10 -31 -6 -79 -29 -79 -37 0
-5 -3 -7 -7 -6 -13 4 -57 -23 -76 -46 -10 -11 -16 -14 -12 -6 20 44 -120 -120
-146 -172 -52 -104 -63 -152 -62 -273 1 -98 5 -119 33 -192 38 -98 73 -154
138 -215 50 -47 178 -122 193 -112 5 3 9 0 9 -6 0 -7 6 -10 13 -7 6 2 23 0 37
-6 14 -5 41 -10 60 -11 35 -1 35 -1 30 -41 -2 -22 -5 -91 -5 -153 0 -85 -3
-112 -13 -112 -29 0 -68 -30 -90 -69 -20 -34 -23 -53 -21 -133 1 -51 7 -107
14 -124 14 -35 66 -76 99 -78 19 -1 21 -6 18 -44 -6 -89 58 -164 178 -207 65
-23 221 -55 320 -65 136 -14 500 -5 610 15 119 21 234 58 283 92 48 33 87 99
87 146 0 48 9 67 30 67 32 0 77 47 88 92 6 23 10 81 8 129 -4 117 -29 159
-108 183 -16 5 -18 20 -18 138 0 73 4 138 8 144 4 6 27 15 52 19 25 4 61 14
80 23 19 8 37 16 40 17 65 23 216 138 204 156 -3 5 -1 9 5 9 27 0 119 204 107
236 -3 8 -1 14 4 14 15 0 11 167 -5 239 -34 143 -140 284 -265 353 -101 56
-150 67 -273 61 -80 -5 -107 -3 -107 6 0 41 -136 190 -226 247 -69 44 -178 86
-224 86 -19 0 -40 4 -45 8 -12 10 -204 8 -207 -1z m168 -64 c131 -17 268 -82
357 -170 31 -30 54 -55 51 -55 -2 0 4 -10 16 -22 11 -12 20 -26 20 -30 0 -5 5
-6 12 -2 7 4 8 3 4 -5 -4 -6 2 -24 13 -39 l19 -28 121 2 c67 0 121 -2 121 -6
0 -7 7 -9 52 -13 15 -1 33 -8 40 -14 6 -7 15 -13 20 -13 4 0 22 -10 40 -22
158 -108 228 -236 228 -418 0 -147 -43 -254 -139 -347 -55 -55 -149 -108 -207
-119 -19 -3 -34 -10 -34 -16 0 -5 -4 -7 -9 -3 -6 3 -28 2 -51 -1 -47 -8 -76
-30 -61 -48 6 -7 7 -171 5 -421 -5 -457 0 -427 -79 -467 -111 -57 -316 -88
-590 -88 -211 -1 -335 11 -462 45 -156 41 -195 69 -207 150 -9 58 -12 768 -3
782 12 19 -22 43 -61 44 -59 2 -77 5 -100 18 -12 6 -22 9 -22 6 0 -10 -83 36
-136 76 -132 97 -194 224 -194 393 1 119 47 237 124 317 25 26 42 49 40 52 -3
3 4 8 16 12 11 4 30 16 42 28 11 12 18 16 13 9 -6 -11 -3 -11 13 -1 12 7 18
17 16 21 -3 5 -2 8 3 7 24 -4 53 2 48 11 -7 12 40 24 56 14 8 -5 9 -3 4 5 -5
9 1 11 24 8 17 -3 31 -1 31 5 0 10 23 9 147 -7 49 -6 53 -4 69 22 82 135 155
206 269 262 96 47 110 52 156 57 20 2 54 8 75 12 21 5 42 7 45 5 4 -1 24 -5
45 -8z m-797 -1812 c-1 -32 2 -98 6 -146 6 -85 6 -88 -12 -78 -40 21 -47 40
-48 139 -1 84 1 100 18 120 31 34 38 27 36 -35z m1509 34 c19 -20 22 -35 23
-115 1 -72 -3 -98 -16 -119 -15 -23 -19 -24 -27 -9 -5 9 -8 70 -6 136 2 74 -1
122 -7 124 -6 3 -6 5 1 5 6 1 20 -9 32 -22z"/>
<path d="M1743 2809 c-58 -29 -81 -96 -51 -152 11 -22 48 -53 58 -50 3 1 5
-217 6 -483 1 -437 -1 -485 -15 -483 -9 1 -18 0 -21 -1 -3 -1 -17 -3 -32 -4
-32 -2 -29 -32 -28 263 l1 195 -106 103 c-104 102 -105 104 -105 150 0 40 5
51 35 79 31 28 35 38 35 79 0 40 -5 52 -34 81 -74 74 -185 27 -186 -77 0 -41
4 -51 38 -81 35 -32 37 -36 36 -93 l-2 -60 78 -77 c42 -43 80 -74 84 -71 3 4
6 -1 6 -10 0 -10 6 -17 14 -17 8 0 18 -9 21 -20 3 -11 9 -20 13 -20 4 0 5 -94
2 -210 -3 -116 -2 -211 2 -213 5 -1 -11 -3 -35 -4 -23 -1 -48 -3 -55 -5 -11
-2 -13 28 -12 150 1 111 -2 152 -10 147 -7 -4 -10 -1 -8 8 2 8 -45 64 -104
126 -102 107 -108 111 -142 108 -22 -3 -36 0 -36 7 0 6 -4 5 -9 -3 -6 -9 -11
-10 -15 -2 -4 6 -5 11 -1 11 15 0 -19 43 -48 60 -39 24 -68 25 -107 5 -66 -34
-79 -122 -29 -180 29 -32 36 -36 78 -34 53 3 101 33 101 63 0 17 2 18 10 6 6
-9 10 -10 10 -3 0 20 54 10 64 -13 5 -11 22 -28 38 -37 15 -9 31 -23 34 -32 4
-9 29 -38 57 -65 l50 -49 0 -141 c-1 -77 -3 -144 -6 -147 -4 -3 -21 -7 -38 -9
-63 -8 -122 -58 -156 -134 -22 -49 -25 -67 -23 -170 4 -196 5 -220 12 -220 4
0 5 -9 3 -20 -2 -11 0 -20 6 -20 5 0 8 -4 7 -9 -5 -15 42 -71 80 -95 77 -48
126 -55 435 -63 229 -5 384 6 469 33 49 16 138 87 141 114 2 8 6 21 11 28 13
22 17 61 18 192 1 188 -5 215 -59 287 -27 35 -114 83 -151 83 -20 0 -23 4 -19
23 4 12 7 76 8 142 l1 119 37 39 c126 135 167 173 181 169 8 -3 32 -20 53 -38
27 -25 47 -34 71 -34 73 0 108 31 119 102 11 71 -59 137 -130 123 -38 -7 -98
-58 -88 -74 3 -6 -5 -8 -20 -5 -14 2 -35 -1 -48 -7 -27 -14 -172 -160 -172
-174 -1 -5 -6 -9 -13 -7 -7 1 -22 -14 -33 -33 -19 -31 -21 -50 -20 -185 1
-103 -2 -150 -9 -150 -6 0 -30 5 -54 11 l-42 10 -3 201 -2 201 40 38 c22 22
44 39 48 39 5 0 34 26 65 58 49 49 57 63 59 99 2 23 5 40 9 38 19 -12 70 60
70 99 0 36 -36 91 -68 105 -82 38 -175 -34 -158 -123 7 -35 62 -100 78 -90 4
3 8 3 8 -1 0 -17 -36 -59 -122 -143 l-96 -94 1 -213 2 -213 -48 2 -48 1 0 480
c0 389 2 480 13 484 50 15 77 88 53 145 -27 64 -89 87 -152 55z m84 -85 c16
-25 16 -27 -8 -45 -30 -23 -48 -24 -56 -1 -4 9 -10 19 -15 22 -13 9 22 50 42
50 11 0 27 -12 37 -26z m-387 -195 c21 -29 22 -31 4 -50 -25 -27 -56 -20 -69
15 -8 24 -6 31 14 47 13 10 25 19 26 19 2 0 13 -14 25 -31z m760 -119 c0 -32
-22 -45 -51 -30 -27 15 -25 58 4 69 29 11 47 -4 47 -39z m-1098 -250 c12 -32
4 -48 -28 -61 -31 -11 -53 3 -58 37 -8 49 69 70 86 24z m1446 -8 c6 -43 -32
-67 -61 -37 -8 8 -17 11 -20 8 -8 -7 0 34 8 48 4 5 21 9 38 7 25 -2 33 -8 35
-26z m-538 -592 c185 -19 231 -38 276 -116 25 -43 27 -53 29 -190 1 -79 -2
-144 -7 -144 -4 0 -8 -9 -8 -20 0 -27 -58 -90 -98 -107 -34 -14 -140 -31 -237
-37 -27 -2 -58 -7 -68 -11 -9 -4 -57 -4 -105 0 -48 4 -117 9 -154 10 -122 7
-233 26 -276 48 -43 22 -62 45 -83 102 -13 39 -13 298 0 324 6 11 11 25 11 31
0 15 48 58 84 77 65 34 440 53 636 33z"/>
<path d="M1460 1417 c-40 -14 -80 -67 -80 -108 0 -37 28 -84 63 -104 40 -24
109 -16 142 18 52 52 39 153 -26 191 -32 19 -51 19 -99 3z m40 -66 c0 -5 9
-11 21 -14 32 -9 22 -59 -14 -72 -24 -8 -31 -6 -43 10 -18 25 -18 50 2 69 17
18 34 21 34 7z"/>
<path d="M2031 1419 c-18 -6 -31 -13 -27 -16 3 -3 -4 -14 -15 -24 -13 -12 -22
-34 -26 -68 -5 -46 -3 -52 29 -83 27 -27 42 -34 78 -36 59 -3 106 25 118 70
30 110 -49 189 -157 157z m79 -88 c15 -29 -4 -71 -32 -71 -13 0 -29 4 -35 8
-17 11 -22 53 -9 69 17 19 64 16 76 -6z"/>
<path d="M1648 1139 c-44 -25 -3 -74 85 -101 73 -22 217 26 217 73 0 28 -23
40 -51 25 -71 -37 -151 -37 -204 0 -23 16 -25 17 -47 3z"/>
</g>
</svg>
